# xmcd
#
# Track frame offsets: 
#        150
#        7557
#        23863
#        33538
#        49115
#        67556
#        87439
#        94039
#        101823
#        116235
#        131169
#        135519
#        153294
#        175903
#        182653
#        192028
#        200593
#        214388
#        220850
#        241667
#
# Disc length: 3403 seconds
#
# Revision: 0
# Processed by: cddbd v1.5.2PL0 Copyright (c) Steve Scherf et al.
# Submitted via: ExactAudioCopy v1.0b3
#
DISCID=0d0d4914
DTITLE=Ковчег - Радуйся, Росско Земле
DYEAR=2005
DGENRE=A Cappella
TTITLE0=Казачка
TTITLE1=Ой, мороз, мороз
TTITLE2=Русское раздолье
TTITLE3=Эй, ухнем
TTITLE4=Отговорила роща золотая
TTITLE5=Байкал
TTITLE6=Радуйся, Росско земле (кант времен Петра I)
TTITLE7=Вдоль по улице метелица метёт
TTITLE8=То не ветер ветку клонит
TTITLE9=Уж ты поле моё
TTITLE10=Блоха
TTITLE11=Степь, да степь кругом
TTITLE12=Там вдали за рекой
TTITLE13=Днесь орле российский (кант времен Петра I)
TTITLE14=Бурлацкая песня
TTITLE15=Пiдманула, пiдвела
TTITLE16=Выхожу один я на дорогу
TTITLE17=Тройка мчится, тройка скачет
TTITLE18=Ах ты, ноченька
TTITLE19=Рябинушка
EXTD=
EXTT0=
EXTT1=
EXTT2=
EXTT3=
EXTT4=
EXTT5=
EXTT6=
EXTT7=
EXTT8=
EXTT9=
EXTT10=
EXTT11=
EXTT12=
EXTT13=
EXTT14=
EXTT15=
EXTT16=
EXTT17=
EXTT18=
EXTT19=
PLAYORDER=
